<?xml version="1.0" encoding="iso-8859-1"?>
<!-- Generator: Adobe Illustrator 16.0.0, SVG Export Plug-In . SVG Version: 6.00 Build 0)  -->
<!DOCTYPE svg PUBLIC "-//W3C//DTD SVG 1.1//EN" "http://www.w3.org/Graphics/SVG/1.1/DTD/svg11.dtd">
<svg version="1.1" id="Capa_1" xmlns="http://www.w3.org/2000/svg" xmlns:xlink="http://www.w3.org/1999/xlink" x="0px" y="0px"
	 width="45.42px" height="45.42px" viewBox="0 0 45.42 45.42" style="enable-background:new 0 0 45.42 45.42;" xml:space="preserve"
	>
<g>
	<path d="M44.944,19.602l-2.971-2.78c-1.254-1.172-3.062-1.453-4.613-0.712l-0.794,0.38c-0.169-0.866-0.511-1.696-1.017-2.47
		l1.999-1.271c0.396-0.253,0.899-0.238,1.284,0.042l3.282,2.403c0.666,0.487,1.606,0.344,2.098-0.325
		c0.488-0.668,0.344-1.607-0.325-2.096l-3.283-2.403c-1.386-1.013-3.216-1.073-4.665-0.152l-2.463,1.566
		c-0.807-0.642-1.746-1.208-2.784-1.687l3.685-3.427c0.34-0.316,0.848-0.396,1.269-0.192l3.666,1.765
		c0.743,0.359,1.642,0.046,2.002-0.701c0.359-0.747,0.046-1.643-0.701-2.002l-3.666-1.765C35.4,3.031,33.59,3.304,32.334,4.474
		l-4.863,4.524c-1.487-0.356-3.085-0.561-4.759-0.561c-1.674,0-3.272,0.205-4.76,0.561L13.09,4.474
		c-1.257-1.169-3.068-1.443-4.614-0.7L4.808,5.54C4.061,5.899,3.747,6.796,4.107,7.542c0.361,0.747,1.261,1.06,2.002,0.701
		l3.666-1.765c0.421-0.203,0.93-0.124,1.27,0.192l3.683,3.426c-1.038,0.479-1.978,1.044-2.784,1.687l-2.463-1.566
		c-1.448-0.92-3.279-0.861-4.665,0.153l-3.283,2.403c-0.669,0.489-0.814,1.428-0.325,2.096c0.489,0.669,1.431,0.813,2.097,0.325
		l3.283-2.402c0.381-0.28,0.885-0.296,1.284-0.042l1.999,1.271c-0.506,0.774-0.848,1.604-1.017,2.47L8.06,16.112
		c-1.55-0.739-3.359-0.462-4.612,0.712l-2.972,2.78c-0.605,0.566-0.637,1.515-0.071,2.12c0.296,0.315,0.695,0.475,1.096,0.475
		c0.367,0,0.735-0.134,1.024-0.405l2.973-2.78c0.344-0.323,0.843-0.4,1.268-0.195l2.407,1.151c0.159,0.413,0.351,0.817,0.591,1.206
		l-1.876,3.229c-0.77,1.324-0.738,2.952,0.082,4.248l2.275,3.589c-0.908,1.786-0.7,4.367,0.732,6.625
		c0.973,1.534,2.32,2.626,3.713,3.149c0.211,0.08,0.448,0.043,0.626-0.095c0.178-0.138,0.271-0.36,0.245-0.584l-0.545-4.813
		c-0.013-0.11,0.04-0.22,0.135-0.279c0.095-0.061,0.215-0.062,0.311-0.001l4.12,2.546c0.191,0.119,0.432,0.129,0.633,0.027
		c0.201-0.103,0.335-0.301,0.354-0.525c0.119-1.482-0.293-3.167-1.266-4.701c-1.428-2.253-3.664-3.546-5.661-3.496l-2.295-3.679
		l1.333-2.294c2.542,1.73,6.094,2.811,10.032,2.811c3.924,0,7.464-1.07,10.004-2.791l1.357,2.37l-2.271,3.583
		c-2.004-0.061-4.251,1.235-5.685,3.496c-0.973,1.534-1.385,3.219-1.266,4.701c0.019,0.225,0.152,0.424,0.354,0.525
		s0.441,0.092,0.634-0.027l4.12-2.546c0.096-0.06,0.216-0.06,0.311,0.001c0.095,0.06,0.147,0.169,0.135,0.279l-0.545,4.813
		c-0.024,0.224,0.067,0.445,0.245,0.584s0.415,0.175,0.626,0.095c1.394-0.523,2.74-1.615,3.713-3.149
		c1.434-2.26,1.642-4.839,0.732-6.625l2.274-3.589c0.82-1.296,0.853-2.923,0.082-4.247l-1.876-3.229
		c0.24-0.389,0.433-0.792,0.591-1.206l2.407-1.151c0.424-0.205,0.922-0.128,1.27,0.195l2.972,2.78
		c0.289,0.271,0.657,0.405,1.024,0.405c0.399,0,0.8-0.16,1.096-0.475C45.581,21.118,45.551,20.168,44.944,19.602z"/>
</g>
<g>
</g>
<g>
</g>
<g>
</g>
<g>
</g>
<g>
</g>
<g>
</g>
<g>
</g>
<g>
</g>
<g>
</g>
<g>
</g>
<g>
</g>
<g>
</g>
<g>
</g>
<g>
</g>
<g>
</g>
</svg>
